<svg xmlns="http://www.w3.org/2000/svg" xmlns:xlink="http://www.w3.org/1999/xlink" width="425.451" height="768" viewBox="0 0 425.451 768">
  <defs>
    <linearGradient id="linear-gradient" y1="0.333" x2="1" y2="0.333" gradientUnits="objectBoundingBox">
      <stop offset="0" stop-color="#0de8fa"/>
      <stop offset="1" stop-color="#1fa4ff"/>
    </linearGradient>
    <linearGradient id="linear-gradient-2" x1="-0.004" y1="0.991" x2="1" gradientUnits="objectBoundingBox">
      <stop offset="0" stop-color="#1fedfb"/>
      <stop offset="1" stop-color="#29c4fd"/>
    </linearGradient>
  </defs>
  <g id="Forma_R" transform="translate(425.451) rotate(90)">
    <g id="_2387007626592" transform="translate(0 0)">
      <path id="Trazado_2" data-name="Trazado 2" d="M0,424.813c44.813-66.473,110.409-77.345,187.773-56.729,71.9,25.476,140.915,22.06,202.8-52.77,37.3-44.621,86-72.378,159.608-63.331,80.159,7.5,153.934-13.647,217.819-79.155V0H0Z" transform="translate(0.001 0.638)" fill-rule="evenodd" fill="url(#linear-gradient)"/>
      <path id="Trazado_3" data-name="Trazado 3" d="M217.449,0c-21.66,69.11-43.349,80.132-71.235,79.673C102.086,89.1,79.74,168.932,67.142,262.711,48.493,367.213,25.3,403,0,406.99V0Z" fill-rule="evenodd" fill="url(#linear-gradient-2)"/>
    </g>
  </g>
</svg>
