<svg xmlns="http://www.w3.org/2000/svg" xmlns:xlink="http://www.w3.org/1999/xlink" width="360" height="199.43" viewBox="0 0 360 199.43">
  <defs>
    <linearGradient id="linear-gradient" y1="0.333" x2="1" y2="0.333" gradientUnits="objectBoundingBox">
      <stop offset="0" stop-color="#0de8fa"/>
      <stop offset="1" stop-color="#1fa4ff"/>
    </linearGradient>
    <linearGradient id="linear-gradient-2" x1="-0.004" y1="0.991" x2="1" gradientUnits="objectBoundingBox">
      <stop offset="0" stop-color="#1fedfb"/>
      <stop offset="1" stop-color="#29c4fd"/>
    </linearGradient>
  </defs>
  <g id="Forma_R" transform="translate(0 0)">
    <g id="_2387007626592" transform="translate(0 0)">
      <path id="Trazado_2" data-name="Trazado 2" d="M0,199.131c21.006-31.159,51.754-36.255,88.019-26.591,33.7,11.942,66.054,10.34,95.061-24.736,17.482-20.916,40.312-33.927,74.816-29.686,37.575,3.513,72.156-6.4,102.1-37.1V0H0Z" transform="translate(0.001 0.299)" fill-rule="evenodd" fill="url(#linear-gradient)"/>
      <path id="Trazado_3" data-name="Trazado 3" d="M101.929,0C91.776,32.4,81.61,37.562,68.538,37.347c-20.685,4.418-31.159,41.84-37.065,85.8C22.731,172.131,11.858,188.906,0,190.777V0Z" fill-rule="evenodd" fill="url(#linear-gradient-2)"/>
    </g>
  </g>
</svg>
